<?xml version="1.0" standalone="no"?>
<!DOCTYPE svg PUBLIC "-//W3C//DTD SVG 20010904//EN"
 "http://www.w3.org/TR/2001/REC-SVG-20010904/DTD/svg10.dtd">
<svg version="1.0" xmlns="http://www.w3.org/2000/svg"
 width="300.000000pt" height="300.000000pt" viewBox="0 0 300.000000 300.000000"
 preserveAspectRatio="xMidYMid meet">
<metadata>
Created by potrace 1.10, written by Peter Selinger 2001-2011
</metadata>
<g transform="translate(0.000000,300.000000) scale(0.100000,-0.100000)"
fill="#000000" stroke="none">
<path d="M1115 2410 c-161 -11 -233 -42 -391 -168 -96 -77 -164 -143 -164
-161 0 -4 9 -16 21 -26 19 -18 25 -19 151 -2 72 9 135 14 139 11 13 -7 11
-931 -1 -975 -6 -20 -24 -56 -40 -80 -16 -24 -30 -52 -30 -62 0 -27 57 -135
77 -145 10 -6 68 -13 129 -17 131 -8 184 3 278 60 32 19 61 33 64 30 9 -8 -19
-62 -46 -88 -15 -14 -74 -52 -132 -85 -66 -37 -111 -69 -120 -86 -14 -26 -14
-28 10 -47 23 -20 35 -20 230 -17 181 4 212 7 267 27 70 25 120 56 139 86 11
17 10 29 -6 75 -10 30 -29 63 -41 73 -22 17 -22 19 -6 52 19 40 29 42 67 15
39 -28 171 -90 192 -90 24 0 48 -27 48 -54 0 -16 -13 -32 -42 -51 -91 -59
-108 -90 -66 -119 18 -13 55 -16 194 -16 184 0 219 7 332 64 73 37 86 60 68
120 -20 66 -50 96 -97 96 -43 0 -56 13 -75 76 -12 42 -12 50 1 70 25 38 18 68
-31 134 -25 34 -49 71 -54 83 -5 12 -50 161 -100 331 -97 329 -98 332 -127
358 -26 22 -44 12 -145 -79 -108 -98 -118 -111 -153 -201 -16 -40 -32 -75 -36
-78 -9 -5 -96 99 -112 133 -9 20 3 36 125 161 74 77 164 176 199 222 51 65 76
88 121 111 71 36 128 85 128 110 0 29 -57 137 -79 148 -11 7 -71 7 -167 2
-122 -7 -161 -13 -209 -33 -56 -22 -135 -70 -197 -118 -19 -15 -28 -18 -28 -8
0 22 -50 121 -72 146 -24 24 -24 24 -213 12z m219 -88 l34 -68 -58 -32 -58
-32 -6 -113 c-9 -176 -12 -307 -5 -307 10 0 282 282 308 318 l23 33 -24 -5
c-31 -8 -267 -46 -279 -46 -6 0 35 37 91 83 226 184 271 205 465 217 72 4 137
11 145 14 12 5 24 -11 48 -60 38 -77 43 -69 -78 -131 -41 -21 -76 -41 -78 -45
-17 -37 -135 -173 -266 -305 l-159 -163 89 -117 c50 -64 94 -118 100 -120 5
-2 29 49 53 112 l44 115 108 101 c67 61 110 96 113 87 153 -530 213 -728 221
-728 10 -1 72 -81 81 -104 3 -7 -6 -22 -19 -34 l-24 -22 26 -90 26 -90 62 0
61 0 16 -47 c9 -26 16 -51 16 -55 0 -5 -39 -28 -87 -51 l-88 -42 -155 -3 c-85
-2 -175 -2 -199 0 l-44 3 87 53 c68 42 86 57 81 70 -3 10 -11 36 -18 59 -10
38 -14 42 -52 48 -51 7 -172 64 -237 111 l-48 34 -36 -72 c-20 -40 -44 -84
-53 -97 l-15 -24 45 6 46 6 17 -55 c10 -31 16 -57 14 -59 -10 -9 -79 -40 -127
-58 -47 -17 -89 -21 -269 -26 -116 -3 -212 -3 -212 0 0 4 60 39 134 79 154 84
157 87 249 302 l55 126 -70 74 c-39 40 -98 108 -131 152 l-62 78 -6 -138 c-3
-77 -11 -152 -17 -167 l-12 -28 38 7 c20 4 48 11 61 16 13 5 25 7 26 6 16 -19
64 -132 58 -137 -29 -26 -120 -84 -165 -108 -50 -26 -61 -27 -188 -28 l-135 0
-33 64 -33 64 30 31 c56 58 55 50 61 611 3 286 4 521 3 523 -1 3 -248 -31
-313 -44 -43 -8 -48 -14 101 106 192 154 270 189 434 191 72 1 133 8 152 18 2
0 18 -30 37 -67z m60 -348 c-60 -67 -91 -94 -108 -94 -12 0 -6 138 7 148 12
10 55 17 130 20 l39 2 -68 -76z m-31 -788 c42 -47 77 -93 77 -103 -1 -10 -7
-29 -14 -43 l-14 -25 -19 34 c-32 59 -48 73 -89 80 -28 5 -39 11 -38 24 0 9 1
40 2 67 1 28 5 50 10 50 4 0 42 -38 85 -84z"/>
<path d="M1960 2309 c-19 -5 -84 -12 -145 -15 -76 -5 -125 -13 -160 -27 -52
-21 -139 -76 -133 -83 4 -3 101 10 161 22 l28 6 -20 -40 c-42 -82 -149 -209
-323 -383 -98 -98 -178 -184 -178 -190 0 -24 174 -251 281 -367 l56 -60 36 91
37 91 -59 70 c-32 39 -90 114 -128 167 l-71 96 172 174 c95 96 205 217 244
270 51 69 79 99 99 104 32 7 130 61 138 76 4 5 5 9 3 8 -2 -1 -19 -5 -38 -10z
m-180 -72 c0 -8 -9 -22 -19 -31 -18 -16 -20 -16 -35 5 -8 12 -13 26 -10 31 9
14 64 9 64 -5z m-363 -716 c43 -57 91 -120 106 -140 28 -38 28 -38 11 -79 -9
-23 -20 -42 -24 -42 -21 0 -270 305 -270 330 0 5 15 26 32 46 l33 37 17 -24
c9 -13 52 -71 95 -128z"/>
<path d="M1259 2305 c-3 -2 -62 -8 -131 -13 -112 -7 -133 -12 -190 -40 -34
-18 -74 -41 -88 -53 l-25 -21 34 6 c19 4 59 9 88 13 l53 6 0 -514 c0 -303 -4
-541 -10 -579 -13 -78 -51 -162 -88 -191 l-27 -21 145 4 145 3 87 55 c48 30
87 58 88 62 0 3 -21 0 -47 -8 -25 -8 -84 -14 -130 -14 l-84 0 20 26 c46 58 50
96 61 544 5 234 10 478 10 542 l0 118 58 29 c85 44 92 51 61 51 -14 0 -28 -2
-30 -5z m-125 -117 c-2 -35 -8 -283 -14 -553 -12 -533 -7 -488 -67 -622 -3 -7
9 -26 27 -43 l32 -30 -59 0 c-33 0 -62 2 -65 5 -2 3 7 38 21 77 l26 73 3 543
c3 479 1 547 -12 568 -9 13 -16 25 -16 28 0 8 33 14 82 15 l46 1 -4 -62z"/>
<path d="M1841 1697 l-65 -61 -136 -340 c-142 -352 -213 -514 -250 -566 -12
-17 -40 -40 -63 -53 l-42 -22 65 -3 c80 -4 156 11 235 47 l60 28 -97 -5 c-54
-3 -98 -2 -98 1 0 3 19 36 42 73 23 38 61 110 85 159 l44 91 82 3 c80 2 191
15 233 27 19 5 25 -9 78 -187 32 -106 60 -198 63 -204 2 -7 -6 -17 -19 -23
-19 -9 -7 -11 62 -11 77 0 93 3 175 39 l90 39 -65 2 c-120 2 -94 -50 -261 518
-82 277 -150 505 -151 507 -2 1 -32 -25 -67 -59z m189 -488 c74 -251 143 -468
152 -482 9 -13 14 -27 11 -31 -10 -9 -71 -7 -77 3 -3 5 -31 92 -62 192 -31
101 -64 193 -74 204 -12 13 -17 29 -14 45 3 14 -17 98 -46 195 -56 186 -79
227 -119 206 -25 -14 -26 -11 -5 37 19 46 63 94 83 90 11 -2 55 -136 151 -459z
m-106 -21 c8 -23 14 -44 12 -45 -1 -2 -65 -6 -141 -10 -117 -5 -137 -4 -132 8
15 34 145 356 151 374 5 14 20 -24 52 -132 24 -83 50 -171 58 -195z m-274 -77
c8 -16 5 -21 -20 -30 -33 -11 -37 -4 -20 30 13 24 26 24 40 0z"/>
<path d="M1805 1335 c-4 -11 -11 -30 -15 -42 -7 -18 -3 -26 26 -48 20 -15 36
-25 37 -24 2 2 -7 33 -20 69 -16 50 -23 60 -28 45z"/>
<path d="M1830 999 c-30 -4 -61 -6 -67 -4 -7 2 -13 1 -13 -3 0 -5 36 -27 81
-50 81 -42 126 -53 115 -29 -2 6 -10 31 -17 55 -12 46 -10 45 -99 31z"/>
</g>
</svg>
